<?xml version="1.0" standalone="no"?>
<!DOCTYPE svg PUBLIC "-//W3C//DTD SVG 20010904//EN"
 "http://www.w3.org/TR/2001/REC-SVG-20010904/DTD/svg10.dtd">
<svg version="1.0" xmlns="http://www.w3.org/2000/svg"
 width="3264.000000pt" height="3264.000000pt" viewBox="0 0 3264.000000 3264.000000"
 preserveAspectRatio="xMidYMid meet">
<metadata>
Created by potrace 1.11, written by Peter Selinger 2001-2013
</metadata>
<g transform="translate(0.000000,3264.000000) scale(0.100000,-0.100000)"
fill="#000000" stroke="none">
<path d="M17515 31739 c-80 -20 -103 -28 -140 -49 -51 -28 -145 -100 -145
-111 0 -4 -9 -11 -21 -14 -11 -4 -18 -9 -16 -12 3 -2 -12 -28 -34 -56 -22 -29
-42 -62 -45 -74 -4 -13 -10 -23 -15 -23 -5 0 -9 -9 -9 -20 0 -11 -4 -20 -10
-20 -5 0 -10 -9 -10 -20 0 -12 -7 -34 -15 -50 -8 -16 -16 -37 -18 -47 -2 -10
-11 -32 -20 -49 -9 -17 -13 -34 -10 -37 3 -4 1 -12 -4 -19 -6 -7 -11 -33 -12
-56 0 -24 -4 -48 -7 -53 -10 -18 -3 -387 9 -405 3 -5 8 -26 11 -48 4 -21 8
-41 11 -45 2 -4 6 -20 9 -36 3 -16 10 -31 16 -35 6 -4 8 -14 5 -22 -4 -9 -2
-19 4 -23 6 -3 11 -15 11 -25 0 -10 5 -20 10 -22 6 -2 12 -14 15 -27 2 -14 10
-28 16 -31 6 -4 10 -10 10 -14 -3 -19 2 -29 39 -75 22 -28 40 -53 40 -57 0 -3
9 -18 20 -34 11 -15 16 -31 12 -35 -4 -4 2 -5 14 -1 15 5 21 2 21 -11 0 -10
-4 -21 -9 -24 -4 -3 -10 -26 -11 -52 -1 -25 -6 -49 -10 -53 -4 -4 -7 -20 -7
-36 0 -15 -5 -28 -11 -28 -6 0 -9 -6 -6 -13 3 -7 -2 -38 -10 -68 -9 -30 -16
-64 -15 -76 0 -13 -4 -23 -8 -23 -4 0 -10 -21 -14 -47 -3 -27 -18 -93 -32
-148 -14 -55 -32 -134 -40 -175 -9 -41 -19 -79 -24 -85 -7 -9 -16 -42 -26 -98
-13 -72 -17 -86 -25 -81 -5 3 -6 -1 -4 -9 3 -7 -1 -40 -10 -73 -9 -32 -18 -66
-20 -74 -30 -131 -122 -426 -145 -469 -5 -9 -23 -52 -40 -95 -17 -43 -45 -104
-62 -135 -17 -31 -39 -69 -48 -86 -42 -78 -70 -114 -151 -195 -64 -63 -113
-90 -166 -90 -21 0 -133 88 -133 104 0 3 -8 14 -17 24 -27 28 -46 59 -42 67 2
4 -6 12 -18 18 -12 7 -22 15 -22 20 -1 4 -4 6 -7 5 -7 -3 -28 42 -26 55 1 4
-3 7 -8 7 -6 0 -10 7 -10 16 0 9 -11 25 -25 36 -13 10 -24 22 -23 26 2 12 -15
46 -33 68 -11 11 -20 32 -21 47 -1 15 -8 29 -16 32 -7 3 -10 9 -7 15 3 5 1 10
-5 10 -6 0 -15 11 -20 25 -5 14 -14 25 -20 25 -5 0 -9 3 -8 8 3 15 -15 62 -24
62 -6 0 -7 7 -4 16 3 8 2 12 -4 9 -6 -3 -10 3 -10 14 0 11 -6 26 -13 33 -7 7
-14 16 -15 21 -1 4 -9 24 -18 45 -9 20 -18 44 -20 52 -2 8 -8 16 -13 18 -6 2
-11 10 -11 19 0 8 -7 21 -15 30 -8 8 -12 19 -9 25 4 6 1 14 -6 18 -7 4 -14 20
-15 34 -2 15 -9 33 -15 41 -7 8 -10 26 -7 40 2 14 2 23 -1 21 -8 -9 -31 27
-32 50 0 12 -7 25 -15 28 -12 4 -14 10 -5 25 13 26 13 31 -5 31 -8 0 -15 9
-15 20 0 11 -4 20 -10 20 -5 0 -10 11 -10 24 0 13 -7 26 -15 30 -10 3 -14 15
-11 35 2 17 -6 48 -19 73 -19 37 -32 75 -40 114 -2 6 -10 27 -19 45 -8 19 -16
52 -18 74 -2 22 -7 43 -13 47 -5 4 -10 11 -11 15 -4 37 -28 102 -36 96 -7 -4
-9 6 -6 26 2 17 1 31 -3 31 -4 0 -9 19 -12 43 -7 59 -18 101 -29 108 -5 3 -11
18 -14 34 -3 16 -8 33 -11 39 -4 5 -8 29 -9 52 -2 24 -9 56 -17 71 -7 16 -13
35 -12 43 1 8 -3 23 -8 33 -5 12 -4 24 4 33 10 12 10 15 -2 12 -9 -2 -15 6
-16 22 -1 14 -5 38 -9 54 -4 18 -3 27 3 23 6 -4 8 10 5 39 -2 24 -1 52 3 62 9
18 12 44 16 105 1 21 6 40 9 42 4 3 3 26 -1 52 -5 27 -9 75 -8 108 1 71 -36
225 -58 242 -9 7 -13 19 -9 28 3 9 0 18 -9 21 -8 4 -12 10 -9 15 3 5 2 9 -3 9
-8 1 -58 76 -58 88 1 8 -24 39 -47 60 -9 9 -15 19 -12 24 3 4 1 8 -4 8 -14 0
-92 77 -85 84 4 3 0 6 -8 6 -8 0 -31 13 -50 29 -20 17 -55 37 -77 47 -23 9
-42 19 -42 23 0 6 -81 39 -120 49 -8 2 -45 5 -81 7 -75 3 -109 12 -109 27 0 6
-10 19 -22 29 -28 25 -51 9 -38 -27 6 -16 6 -24 -1 -24 -6 0 -8 -4 -5 -8 3 -5
-27 -21 -67 -36 -40 -16 -88 -38 -107 -50 -19 -11 -38 -20 -42 -18 -5 1 -8 -5
-8 -13 0 -8 -6 -15 -13 -15 -7 0 -33 -23 -58 -51 -24 -28 -55 -63 -68 -77 -25
-29 -82 -144 -105 -214 -15 -46 -34 -140 -35 -173 -2 -97 -1 -223 2 -235 2 -8
6 -24 10 -35 3 -11 8 -31 11 -45 11 -57 17 -77 33 -125 10 -27 23 -56 30 -62
6 -7 17 -30 23 -50 7 -21 16 -42 20 -48 7 -9 23 -67 24 -88 1 -5 8 -14 17 -20
8 -7 18 -20 22 -29 3 -10 11 -18 17 -18 5 0 10 -7 10 -15 0 -9 11 -38 25 -65
14 -28 23 -50 20 -50 -3 0 -1 -9 5 -21 6 -11 13 -28 15 -37 2 -9 8 -31 14 -49
5 -17 7 -34 3 -37 -3 -3 0 -6 5 -6 10 0 30 -74 25 -93 -1 -4 4 -15 13 -23 8
-9 16 -27 17 -42 3 -51 7 -77 24 -132 9 -30 20 -75 26 -100 6 -25 14 -49 18
-55 4 -5 6 -21 5 -35 -1 -14 2 -33 7 -42 5 -12 5 -18 -1 -18 -10 0 -6 -17 16
-70 3 -8 8 -49 10 -90 3 -41 9 -79 13 -85 7 -9 18 -60 24 -118 2 -12 6 -44 9
-72 14 -112 19 -162 22 -239 2 -45 6 -106 9 -136 3 -30 9 -113 12 -185 3 -71
8 -159 10 -195 8 -119 8 -1073 0 -1215 -9 -165 -12 -226 -20 -400 -4 -71 -9
-161 -13 -200 -3 -38 -7 -95 -8 -125 -2 -54 -12 -180 -21 -270 -3 -25 -7 -67
-9 -94 -24 -285 -32 -369 -51 -516 -19 -143 -32 -259 -44 -375 -5 -49 -12
-106 -15 -125 -3 -19 -10 -62 -15 -95 -5 -33 -12 -87 -15 -120 -6 -59 -19
-114 -35 -146 -5 -9 -5 -21 -1 -28 8 -12 4 -39 -40 -317 -22 -143 -23 -148
-32 -184 -3 -14 -9 -47 -12 -74 -3 -27 -8 -52 -10 -56 -2 -3 -9 -44 -15 -90
-6 -47 -13 -96 -16 -110 -3 -14 -12 -58 -19 -98 -8 -40 -16 -76 -19 -80 -2 -4
-8 -35 -11 -67 -4 -33 -11 -70 -16 -82 -5 -13 -6 -23 -3 -23 2 0 0 -8 -5 -18
-5 -10 -12 -36 -15 -58 -3 -21 -8 -50 -10 -64 -3 -14 -8 -36 -11 -50 -3 -14
-7 -42 -10 -63 -2 -21 -6 -41 -9 -45 -5 -8 -36 -153 -41 -189 -6 -45 -60 -306
-75 -363 -31 -119 -80 -328 -94 -407 -22 -118 -45 -198 -91 -314 -45 -111 -70
-152 -118 -197 -33 -29 -125 -79 -159 -86 -7 -2 -24 -8 -38 -13 -82 -34 -190
-55 -290 -56 -51 0 -164 15 -191 27 -24 10 -40 11 -59 4 -22 -9 -87 -6 -215 7
-22 3 -71 7 -110 10 -38 3 -83 7 -100 10 -49 7 -474 19 -685 20 -174 0 -315
-7 -420 -20 -19 -3 -60 -7 -90 -10 -79 -6 -223 -31 -315 -54 -44 -11 -123 -29
-175 -40 -52 -11 -171 -43 -265 -71 -93 -29 -197 -60 -230 -70 -33 -10 -105
-34 -160 -54 -55 -21 -104 -38 -110 -39 -5 -2 -30 -12 -55 -24 -25 -12 -97
-41 -160 -64 -63 -23 -119 -45 -125 -49 -5 -4 -21 -11 -35 -15 -22 -7 -59 -23
-190 -84 -14 -6 -41 -21 -60 -33 -19 -11 -80 -44 -135 -73 -55 -28 -129 -70
-165 -93 -36 -23 -81 -50 -101 -61 -19 -11 -41 -27 -48 -35 -8 -9 -19 -16 -26
-16 -8 0 -15 -3 -17 -7 -1 -5 -37 -30 -78 -58 -86 -57 -350 -266 -453 -358
-114 -102 -192 -186 -324 -352 -99 -123 -129 -166 -270 -380 -95 -145 -246
-468 -293 -625 -8 -25 -17 -49 -20 -55 -4 -5 -10 -25 -14 -44 -3 -19 -14 -43
-24 -54 -9 -10 -16 -22 -15 -26 2 -3 -6 -33 -17 -66 -11 -33 -22 -91 -25 -130
-8 -98 -14 -136 -24 -165 -9 -23 -12 -49 -26 -205 -3 -27 -9 -88 -13 -133 -13
-137 -2 -737 14 -764 2 -3 5 -31 5 -60 0 -29 7 -71 14 -93 7 -22 21 -92 30
-155 20 -131 58 -327 82 -415 9 -33 19 -76 24 -95 4 -19 13 -55 19 -80 6 -25
13 -52 15 -60 2 -8 9 -28 14 -45 6 -16 33 -97 60 -180 89 -267 198 -548 287
-740 13 -27 46 -99 75 -160 60 -130 432 -878 439 -885 5 -4 113 -217 251 -492
27 -54 49 -104 49 -112 0 -8 5 -18 10 -21 15 -9 90 -166 90 -187 0 -10 5 -18
10 -18 6 0 21 -24 34 -52 47 -103 74 -164 101 -228 33 -79 38 -89 70 -165 92
-212 226 -600 284 -820 37 -140 72 -303 81 -380 6 -49 13 -97 15 -105 2 -8 12
-89 22 -180 13 -126 18 -250 18 -520 -1 -401 -13 -594 -65 -1005 -6 -44 -12
-91 -15 -105 -2 -14 -11 -68 -20 -120 -48 -302 -90 -522 -116 -606 -5 -17 -9
-38 -9 -48 0 -10 -9 -57 -20 -105 -12 -47 -29 -122 -40 -166 -10 -44 -28 -123
-41 -175 -12 -53 -31 -105 -42 -117 -14 -15 -16 -26 -10 -38 7 -12 -2 -60 -29
-158 -53 -199 -59 -217 -77 -227 -10 -6 -11 -10 -3 -10 14 0 17 -36 3 -44 -5
-3 -12 -27 -16 -53 -4 -27 -11 -56 -17 -66 -5 -11 -25 -78 -44 -150 -19 -73
-37 -141 -40 -152 -3 -11 -8 -31 -11 -45 -2 -14 -8 -34 -12 -45 -18 -46 -40
-123 -46 -160 -4 -22 -16 -71 -26 -110 -27 -103 -67 -328 -73 -420 -6 -84 -7
-398 -1 -500 2 -33 8 -85 13 -115 9 -45 8 -57 -4 -66 -18 -14 -18 -35 0 -28
16 6 21 -8 31 -76 3 -25 8 -57 11 -72 4 -21 0 -29 -23 -40 -33 -16 -44 -54
-15 -54 11 0 19 7 18 16 -1 8 5 15 13 15 14 0 26 -29 35 -85 2 -14 9 -45 16
-70 7 -25 13 -54 15 -65 1 -11 12 -55 24 -99 11 -43 19 -82 16 -86 -2 -4 4
-26 15 -48 11 -23 20 -47 20 -54 0 -7 19 -65 41 -128 22 -63 45 -131 49 -150
13 -53 64 -190 88 -237 28 -53 28 -85 1 -109 l-21 -19 37 -5 c34 -4 40 -10 52
-45 7 -22 22 -59 33 -83 18 -38 32 -69 75 -167 8 -16 34 -73 58 -125 24 -52
47 -102 51 -110 7 -15 83 -160 176 -335 29 -55 89 -160 134 -234 45 -73 91
-150 103 -170 12 -20 28 -47 35 -61 12 -25 35 -60 146 -228 34 -51 63 -98 65
-104 1 -6 17 -28 35 -47 18 -20 48 -58 67 -86 28 -43 127 -179 152 -210 4 -6
40 -48 79 -95 96 -116 115 -145 103 -157 -6 -6 -2 -9 12 -9 12 1 26 -8 33 -19
6 -11 16 -24 22 -30 6 -5 49 -53 94 -105 83 -94 297 -310 381 -384 112 -97
141 -128 130 -139 -16 -16 -13 -44 6 -51 9 -4 21 -2 27 4 18 18 37 11 100 -38
84 -66 165 -122 174 -122 4 0 19 -11 34 -25 15 -14 31 -25 36 -25 5 0 38 -19
73 -42 169 -109 525 -255 719 -295 271 -54 522 -61 700 -18 143 34 298 85 397
131 30 13 56 24 58 24 10 0 190 105 200 116 6 6 28 24 50 40 22 15 47 35 56
44 9 8 29 26 45 39 49 41 119 107 123 117 3 5 18 23 34 39 19 20 31 26 34 18
9 -24 20 -13 16 14 -3 18 3 35 15 49 11 11 27 35 36 52 9 18 21 32 26 32 6 0
10 6 10 14 0 7 6 19 14 25 8 7 18 27 22 44 10 45 36 97 46 91 8 -5 9 0 12 51
0 17 4 35 7 40 4 6 12 34 20 64 7 29 18 55 24 57 6 3 10 19 8 37 -2 18 -4 37
-5 42 0 6 7 38 15 72 9 37 11 63 6 63 -6 0 -7 5 -3 11 13 21 5 234 -12 329
-11 61 -12 130 -2 136 6 4 5 10 -3 14 -7 5 -13 19 -14 32 -12 144 -18 181 -27
188 -6 5 -9 34 -23 179 -3 29 -2 59 3 65 5 6 8 18 7 26 -1 8 -3 21 -3 28 -2
10 -7 10 -22 2 -21 -11 -25 -4 -34 70 -2 19 -5 35 -6 35 -5 0 -13 56 -14 95 0
25 -5 48 -11 52 -5 4 -10 11 -11 15 0 4 -4 28 -8 53 -4 25 -8 55 -9 68 -1 12
-4 22 -8 22 -4 0 -7 12 -7 28 0 15 -5 49 -11 75 -6 27 -9 52 -6 56 2 5 -4 20
-14 33 -13 16 -16 29 -11 38 5 8 3 27 -5 46 -10 25 -11 34 -2 38 9 3 9 7 -1
14 -7 5 -14 24 -16 44 -2 19 -6 40 -10 47 -4 6 -4 16 -1 21 4 6 -1 25 -9 42
-11 21 -13 34 -6 38 7 4 6 16 -4 35 -8 16 -13 32 -10 37 3 5 0 15 -6 23 -11
14 -9 72 4 93 3 6 2 13 -4 17 -5 3 -10 16 -10 29 0 12 -4 26 -9 32 -10 9 -16
43 -25 139 -3 28 -8 61 -11 75 -2 13 0 27 5 30 5 3 5 21 1 42 -5 20 -5 40 -1
45 4 4 10 27 14 50 5 34 3 43 -9 43 -18 0 -31 48 -17 62 8 8 7 14 -1 23 -7 6
-11 31 -9 56 1 24 2 53 1 64 -1 24 -1 212 1 239 0 11 9 25 18 32 12 10 13 13
3 14 -8 0 -11 6 -7 16 4 9 1 23 -6 31 -9 11 -9 22 0 47 12 32 25 171 23 235
-1 18 3 39 9 46 6 8 13 45 15 84 5 71 20 111 42 111 15 0 17 16 3 25 -5 3 -8
18 -6 33 5 40 47 194 58 215 5 10 11 28 13 40 3 12 9 31 14 42 5 11 17 41 27
67 9 27 20 48 25 48 4 0 10 13 14 30 4 16 11 32 16 35 5 4 9 13 9 22 0 8 10
29 23 46 12 18 23 43 24 56 1 13 11 33 21 45 10 11 25 36 32 54 7 17 16 32 21
32 5 0 9 7 9 16 0 8 6 22 13 29 33 38 37 45 37 65 0 6 7 10 15 10 15 0 24 13
29 42 4 23 30 58 44 58 8 0 12 5 10 12 -3 7 12 29 31 49 20 20 45 47 57 60 11
13 44 44 73 69 29 25 60 52 70 60 31 29 93 60 104 54 7 -4 9 -3 4 1 -7 9 20
45 34 45 4 0 27 13 51 29 134 90 378 205 651 306 121 45 128 47 141 30 16 -23
46 -13 46 14 0 15 10 23 43 31 23 6 56 15 72 20 106 33 420 97 590 121 228 33
682 32 894 -2 65 -10 222 -59 276 -87 32 -16 177 -111 185 -121 3 -3 28 -24
55 -46 62 -49 212 -205 272 -282 24 -32 56 -73 71 -92 70 -87 226 -364 300
-531 98 -224 135 -318 128 -335 -3 -8 1 -18 8 -22 7 -5 23 -39 36 -78 12 -38
29 -87 36 -108 8 -20 14 -48 14 -62 0 -13 4 -26 9 -29 4 -3 11 -25 15 -48 4
-23 17 -81 30 -128 28 -102 53 -212 59 -260 3 -19 12 -64 21 -100 8 -36 17
-85 20 -110 6 -53 23 -155 31 -179 3 -9 7 -35 10 -56 5 -48 6 -56 39 -260 15
-88 31 -182 36 -210 6 -27 17 -93 25 -145 8 -52 16 -104 19 -115 19 -99 18
-102 -16 -96 -12 2 -9 -45 4 -74 6 -14 19 -25 28 -25 10 0 20 -10 23 -23 26
-113 95 -372 107 -402 5 -11 24 -67 43 -125 69 -207 111 -295 213 -452 79
-120 141 -198 208 -261 72 -69 243 -196 291 -217 22 -10 78 -36 125 -58 47
-22 128 -52 180 -66 52 -14 111 -30 130 -36 58 -17 279 -41 360 -39 201 5 537
72 728 145 177 68 460 226 517 289 6 6 21 18 34 27 33 23 201 187 201 196 0 4
14 22 30 40 17 18 30 37 30 41 0 4 14 20 30 36 17 16 30 34 30 41 0 7 6 17 13
21 8 4 22 21 33 38 10 16 26 37 34 46 13 14 51 76 55 89 6 20 30 60 37 60 4 0
7 4 6 8 -3 7 14 47 48 112 7 14 16 23 20 22 4 -2 12 4 17 14 7 12 7 19 -1 22
-13 4 -5 28 17 54 9 10 16 22 17 26 2 19 18 68 24 77 5 6 10 24 13 40 3 17 12
48 21 70 14 35 23 69 25 98 1 5 10 5 21 2 23 -7 28 13 5 21 -8 4 -13 10 -10
14 3 4 7 25 11 46 3 22 11 42 18 46 7 4 13 26 15 50 1 23 5 45 9 48 4 3 9 21
11 40 2 19 6 40 9 45 4 6 7 21 7 35 2 39 16 93 29 109 8 11 8 13 -1 7 -9 -5
-13 0 -13 13 0 12 7 21 15 21 12 0 13 5 3 24 -6 14 -7 33 -3 43 5 10 9 23 10
28 1 6 3 12 4 15 1 3 4 25 6 50 7 83 11 105 24 128 6 12 8 28 4 35 -9 13 -11
97 -3 97 3 0 6 28 6 63 2 118 9 167 23 172 10 4 10 9 3 18 -14 17 -4 59 12 50
6 -3 3 3 -7 15 -20 22 -16 42 9 42 11 0 14 8 12 28 -2 16 -8 26 -16 24 -9 -2
-12 7 -10 30 2 27 7 32 24 30 18 -2 20 1 16 29 -3 21 -1 30 6 25 6 -4 8 2 5
15 -4 14 0 26 11 34 15 12 15 13 -1 20 -10 5 -25 9 -33 9 -12 1 -15 17 -13 91
1 49 6 91 12 93 6 2 6 15 0 35 -5 17 -6 39 -3 49 3 10 7 49 9 87 2 39 6 74 9
79 2 4 1 24 -3 43 -8 37 -4 62 9 54 9 -5 -5 53 -15 63 -2 3 3 12 13 21 20 18
23 72 4 79 -7 2 -9 8 -6 13 3 6 8 56 10 112 6 151 12 246 19 302 4 28 7 56 6
63 -3 56 2 117 9 117 7 0 6 144 -1 157 -6 10 -5 19 1 23 6 4 10 34 8 68 -1 34
1 67 5 74 4 6 3 14 -2 18 -6 3 -5 20 4 44 7 22 11 42 8 45 -8 8 -11 96 -3 96
3 0 6 41 7 91 1 51 6 95 12 98 6 4 7 12 1 21 -14 22 -12 70 3 70 8 0 8 3 2 8
-10 6 -11 19 -5 40 1 4 1 22 0 41 -1 21 2 31 9 27 11 -7 7 76 -4 95 -3 5 0 19
7 31 6 13 11 33 9 46 -1 12 2 22 7 22 14 0 10 28 -4 34 -8 3 -11 14 -8 28 3
13 5 29 5 36 -5 60 1 112 12 112 5 0 5 6 -1 13 -10 12 -10 38 3 147 4 36 8 93
8 127 0 35 3 63 6 63 3 0 5 20 3 45 -3 32 0 45 9 45 10 0 10 3 1 12 -13 13
-16 51 -5 62 4 4 9 33 10 64 2 31 5 89 6 127 2 39 5 72 6 75 3 7 13 160 12
189 -1 12 2 28 6 34 7 11 14 98 13 165 0 17 4 32 9 32 6 0 8 9 6 21 -2 11 0
31 5 45 6 15 6 32 1 42 -9 19 -4 45 9 37 4 -3 6 12 4 32 -2 20 2 43 8 50 7 9
7 13 0 13 -6 0 -9 14 -6 33 2 17 6 59 9 92 7 96 9 109 23 123 6 7 12 30 13 50
0 20 2 45 4 55 2 10 -1 32 -6 50 -7 24 -6 35 5 42 8 6 11 18 6 30 -7 21 14 85
28 85 4 0 8 8 9 18 0 9 2 35 3 57 2 22 0 64 -5 94 -5 38 -4 52 4 47 7 -5 10 7
9 36 -1 50 10 126 22 147 4 8 4 26 -1 39 -6 16 -6 29 0 36 6 7 11 28 13 47 1
19 8 40 16 48 11 11 11 16 1 22 -10 6 -10 16 2 51 7 24 13 53 13 65 -1 22 8
27 43 26 15 -1 13 17 -4 35 -14 15 -18 72 -5 72 5 0 7 14 6 31 -1 20 5 38 20
52 21 21 21 25 8 45 -13 19 -12 22 1 28 9 3 14 11 11 19 -3 7 1 19 8 26 19 19
30 49 18 49 -6 0 -10 9 -10 20 0 11 5 20 10 20 6 0 10 11 10 25 0 14 4 25 9
25 5 0 11 15 15 33 10 53 55 137 70 131 16 -6 23 3 30 39 3 16 1 25 -5 22 -16
-10 -10 11 11 37 10 14 17 28 13 31 -3 4 2 18 11 33 10 14 15 28 12 31 -2 3 4
14 15 26 10 11 20 27 20 34 3 33 6 38 18 35 7 -1 10 1 7 6 -3 5 1 20 9 35 8
15 12 27 9 27 -3 0 2 7 10 16 9 8 16 22 16 29 0 8 11 26 25 41 15 17 21 30 15
34 -6 3 3 16 20 28 16 13 30 29 30 37 0 8 5 15 11 15 6 0 9 7 5 15 -7 18 3 47
14 40 4 -3 10 2 14 10 3 8 12 15 21 15 13 0 13 3 3 19 -10 16 -9 23 4 38 9 10
20 30 23 45 4 16 11 26 15 23 7 -4 17 12 21 33 2 14 22 32 30 26 5 -3 9 5 9
18 0 13 11 39 25 58 14 19 25 40 25 47 0 7 7 13 15 13 9 0 15 9 15 23 0 13 9
34 20 47 11 13 20 26 20 31 0 4 16 31 35 60 19 30 35 59 35 66 0 7 6 13 14 13
7 0 19 13 26 30 7 16 16 27 21 24 5 -3 9 3 9 13 0 19 32 76 55 99 7 8 16 19
18 26 4 10 8 9 16 -2 11 -15 15 -8 12 23 -1 9 5 20 14 23 10 4 13 13 10 25 -4
11 2 26 14 38 10 10 16 23 13 27 -4 4 3 4 16 1 14 -3 22 -1 22 8 0 8 7 21 16
29 8 9 13 16 9 16 -3 0 1 10 9 23 8 12 15 24 16 27 4 26 14 50 21 50 5 0 9 6
9 14 0 8 8 21 19 28 18 13 21 18 21 39 0 7 10 9 24 7 18 -4 26 0 29 14 3 10 1
20 -4 23 -9 6 9 56 25 67 5 3 18 5 28 3 11 -2 18 2 18 11 0 8 6 17 14 20 10 4
14 19 12 51 -2 32 3 52 16 69 11 13 16 24 11 24 -4 0 0 5 10 11 9 6 15 14 12
19 -3 5 8 18 25 30 17 12 28 26 25 31 -3 5 5 21 19 36 14 15 22 31 19 36 -3 5
-1 12 4 16 14 10 63 98 63 114 0 8 7 20 15 27 8 7 15 21 15 31 0 10 11 26 24
34 16 11 22 22 19 35 -3 11 0 20 6 20 12 0 51 71 51 95 0 8 4 15 9 15 5 0 15
16 22 35 7 19 17 35 21 35 4 0 8 11 8 24 0 13 9 35 20 49 11 14 20 32 20 41 0
9 5 16 11 16 5 0 8 4 4 10 -3 5 2 18 12 28 10 10 19 25 21 33 2 8 18 46 37 86
19 39 39 89 45 112 6 22 17 47 25 55 8 8 15 22 15 30 0 9 4 16 10 16 5 0 7 6
4 14 -3 7 4 29 15 47 12 19 21 41 21 50 0 9 8 27 18 40 10 13 19 35 20 49 0
14 6 26 12 28 5 2 10 12 10 22 0 10 4 21 9 25 6 3 8 14 6 25 -2 12 6 30 20 44
15 15 20 28 15 37 -5 7 -6 18 -2 24 4 5 7 15 7 20 2 19 24 63 35 70 9 6 9 9 0
15 -9 6 -8 15 4 38 9 17 16 41 16 54 0 23 19 62 21 43 0 -5 4 -1 9 10 4 11 6
30 3 42 -2 11 1 25 9 30 7 4 14 25 14 47 1 21 6 41 11 45 5 3 10 22 11 41 2
19 7 37 12 38 6 2 8 8 4 13 -3 5 -2 14 2 20 4 7 8 26 10 43 2 28 9 62 14 76 1
3 3 10 4 15 1 6 8 23 14 39 7 16 10 36 7 44 -3 9 -1 18 5 22 7 4 14 26 17 49
3 22 10 41 14 41 5 0 8 3 7 8 -2 11 12 65 22 84 6 11 4 20 -5 28 -15 13 -21
71 -8 84 4 3 8 23 10 44 1 20 6 48 9 62 4 14 8 36 9 50 3 38 15 91 25 110 5
10 7 20 3 23 -11 12 -7 75 6 91 9 10 9 16 3 16 -11 0 -10 28 2 115 3 17 6 86
8 154 2 87 7 126 16 129 6 2 12 10 12 18 0 7 -6 11 -12 9 -10 -4 -13 24 -14
120 -1 76 3 125 9 125 6 0 6 5 -1 13 -6 6 -11 15 -11 20 -1 4 -1 8 -2 10 -6
16 -3 118 3 136 5 14 5 27 0 30 -5 3 -9 13 -9 21 0 8 -3 25 -7 38 -5 14 -3 22
4 22 8 0 8 6 0 20 -6 11 -8 25 -5 30 3 5 1 11 -5 15 -6 4 -7 23 -3 47 4 30 3
39 -5 34 -7 -4 -12 0 -13 11 -1 10 -2 25 -3 33 -1 8 2 23 6 32 5 9 4 20 -2 23
-6 4 -8 11 -5 16 4 5 2 9 -3 9 -4 0 -8 27 -8 60 1 33 -2 60 -6 60 -5 0 -7 3
-6 8 1 4 -4 23 -11 42 -7 19 -15 50 -17 69 -2 19 -8 37 -13 40 -5 3 -9 22 -9
41 -1 36 -31 151 -42 160 -8 6 -24 61 -22 73 1 4 -3 7 -8 7 -6 0 -10 11 -10
24 0 14 -5 28 -10 31 -6 4 -7 12 -1 22 9 18 -5 73 -19 73 -7 0 -19 31 -27 74
-2 11 -10 27 -17 35 -23 27 -57 101 -51 111 3 6 2 10 -2 10 -9 0 -39 69 -35
83 1 4 -3 7 -8 7 -6 0 -10 5 -10 11 0 7 -10 20 -21 30 -13 11 -19 25 -15 34 3
9 2 13 -4 10 -10 -6 -15 13 -12 47 1 11 -3 15 -13 12 -19 -8 -32 25 -15 36 11
7 11 11 1 24 -7 9 -17 14 -21 11 -11 -7 -41 35 -34 47 3 5 0 7 -7 6 -7 -2 -15
6 -17 17 -2 11 -8 22 -12 25 -5 3 -10 12 -12 20 -2 8 -13 24 -24 35 -12 11
-35 44 -50 73 -16 29 -41 65 -56 80 -15 15 -28 32 -28 39 0 6 -3 13 -7 15 -19
8 -62 71 -57 80 4 7 2 8 -4 4 -11 -6 -17 6 -13 27 1 4 -12 13 -29 18 -17 6
-30 18 -30 27 -1 24 -23 50 -38 44 -7 -2 -16 5 -19 17 -3 12 -9 21 -13 21 -4
0 -40 31 -79 70 -40 38 -76 70 -81 70 -6 0 -10 7 -10 15 0 8 -4 15 -9 15 -4 0
-24 15 -44 33 -39 35 -123 103 -204 163 -29 21 -53 42 -53 46 0 4 -5 8 -10 8
-6 0 -20 8 -31 19 -11 10 -40 29 -64 41 -25 13 -45 27 -45 32 0 4 -6 8 -14 8
-8 0 -17 7 -20 16 -3 8 -10 13 -15 10 -4 -3 -16 3 -26 14 -10 11 -24 20 -32
20 -7 0 -13 4 -13 8 0 5 -103 60 -229 123 -127 63 -230 119 -230 125 -1 11
-47 29 -63 26 -5 -1 -8 3 -8 9 0 7 -11 9 -29 6 -21 -5 -37 0 -56 15 -14 11
-38 22 -53 23 -15 1 -61 14 -102 28 -41 14 -122 39 -180 57 -58 17 -123 37
-145 44 -95 30 -115 36 -205 55 -52 11 -111 25 -130 31 -45 13 -368 72 -520
94 -47 7 -116 13 -225 21 -49 4 -99 9 -110 11 -65 13 -716 24 -909 15 -121 -6
-129 -5 -139 14 -6 11 -10 34 -8 50 1 17 -5 46 -13 66 -8 19 -14 55 -14 80 1
26 -7 63 -21 93 -13 27 -21 56 -18 66 2 9 0 25 -6 35 -5 10 -11 34 -13 54 -1
20 -9 63 -17 96 -8 33 -11 64 -6 69 4 5 4 17 -1 26 -14 25 -18 72 -9 97 5 14
4 23 -5 26 -9 4 -13 19 -11 41 1 20 -2 36 -6 36 -4 0 -8 15 -8 33 1 42 -10
134 -20 172 -5 19 -4 37 3 48 8 13 8 20 -3 26 -9 6 -14 33 -15 89 0 44 -4 78
-7 76 -4 -2 -6 42 -5 97 1 55 -1 102 -5 104 -3 2 -5 29 -5 60 1 30 -2 55 -6
55 -4 0 -6 25 -3 57 2 31 1 61 -3 67 -6 10 -9 36 -12 96 0 8 1 47 3 85 2 39 0
83 -4 98 -4 16 -4 39 1 53 7 16 6 24 -1 24 -11 0 -8 58 4 108 3 12 1 22 -4 22
-6 0 -8 4 -4 9 3 5 2 12 -3 15 -8 5 -6 110 2 133 3 7 1 15 -3 18 -5 3 -7 22
-5 42 4 42 4 155 1 433 -1 102 1 193 5 202 5 9 4 19 -1 22 -10 7 -9 25 2 42 8
14 9 56 4 137 -1 31 0 62 4 69 4 6 3 22 -1 34 -5 13 -5 26 -1 28 5 3 7 20 5
38 -2 17 1 35 7 39 7 4 9 14 4 25 -5 11 -7 24 -5 29 1 6 4 48 6 95 2 47 6 114
9 150 3 36 6 90 8 120 2 30 5 55 6 55 2 0 4 38 5 85 2 47 6 100 10 118 13 54
14 82 5 88 -5 3 -4 14 2 25 6 11 8 26 6 34 -3 7 0 23 6 36 7 13 12 50 11 82 0
31 2 57 5 57 3 0 6 29 5 65 0 37 3 68 7 71 4 2 6 13 4 24 -2 11 -1 20 3 20 4
0 7 24 8 53 1 60 6 90 16 97 4 3 10 57 13 120 6 128 8 147 19 173 5 9 6 24 2
32 -3 8 0 28 6 43 6 15 12 37 14 48 1 12 6 39 10 60 4 22 8 51 9 65 1 14 5 31
9 37 3 6 2 13 -4 17 -7 4 -7 12 0 26 6 10 9 19 6 19 -4 0 15 67 30 104 5 13 4
17 -4 12 -16 -10 -24 10 -9 23 8 6 15 32 16 58 0 25 6 52 12 59 6 8 6 14 0 18
-5 3 -7 15 -4 26 3 11 9 18 13 15 5 -3 6 4 3 15 -3 11 -1 20 3 20 5 0 9 12 10
28 2 51 12 107 25 137 6 17 13 56 14 88 1 33 6 62 11 65 5 4 11 32 13 62 1 30
6 60 9 65 4 6 5 18 4 28 -2 11 3 17 15 17 13 0 15 3 5 8 -9 6 -10 16 -4 33 5
13 10 27 11 32 3 16 7 29 15 50 5 9 6 26 3 37 -3 11 -1 20 4 20 4 0 6 7 2 16
-3 9 -1 19 6 23 7 4 14 26 16 47 2 22 11 53 19 69 8 16 12 33 9 38 -3 5 -1 19
5 30 10 21 19 47 20 57 0 3 5 17 10 31 6 14 11 48 13 75 1 27 7 55 12 62 6 8
6 12 -2 12 -6 0 -11 7 -11 15 0 8 4 15 8 15 10 0 29 54 38 108 4 28 12 42 22
42 11 0 12 3 3 14 -9 11 -7 27 9 69 12 31 22 72 23 92 1 19 5 35 9 35 4 0 10
16 14 35 3 19 9 35 13 35 3 0 7 10 7 23 2 18 21 98 39 157 4 14 17 64 26 100
2 8 7 18 11 21 5 3 9 17 10 32 1 15 8 29 14 31 7 3 10 14 7 25 -3 12 -1 21 4
21 5 0 9 14 8 32 -3 42 5 69 17 62 6 -4 8 2 3 15 -4 14 -2 21 6 21 7 0 10 3 7
6 -4 3 -2 20 4 37 5 18 10 40 10 50 -1 9 3 17 9 17 5 0 9 6 9 14 0 8 6 16 13
19 9 3 9 8 1 16 -13 14 -7 61 8 61 5 0 14 14 19 30 6 17 18 30 26 30 8 0 11 5
8 10 -4 6 8 24 25 40 18 17 28 30 24 30 -5 0 4 11 20 25 16 14 26 25 23 25 -4
0 9 17 28 37 19 20 35 43 35 50 0 6 10 19 22 27 12 9 19 16 15 16 -4 0 -1 14
8 30 9 17 13 30 10 30 -4 0 1 7 10 16 9 9 14 23 10 32 -3 8 0 21 7 30 7 8 12
17 11 19 -7 8 -2 64 5 60 4 -3 7 11 7 31 1 21 3 58 6 84 3 26 2 45 -2 43 -4
-3 -7 16 -7 43 -1 64 -4 82 -13 82 -5 0 -6 7 -3 15 4 8 11 12 17 8 6 -3 3 4
-6 18 -9 13 -17 35 -17 50 0 15 -6 32 -14 39 -8 6 -13 17 -10 25 3 7 -2 27
-10 44 -9 17 -17 34 -17 38 -1 5 -14 27 -30 50 -16 23 -29 45 -29 48 0 4 -15
26 -32 48 -18 23 -26 38 -18 33 8 -4 6 0 -4 8 -11 9 -23 16 -28 16 -4 0 -8 6
-8 14 0 7 -13 19 -29 26 -16 6 -31 21 -34 32 -3 11 -10 17 -16 13 -6 -3 -26 5
-43 19 -49 37 -132 76 -162 76 -14 0 -26 4 -26 9 0 6 -8 10 -17 10 -10 0 -51
2 -91 3 -40 2 -76 0 -78 -4 -3 -4 -21 -8 -39 -8 -19 0 -49 -6 -67 -14 -18 -8
-49 -21 -70 -30 -20 -9 -40 -16 -45 -16 -6 0 -18 -9 -28 -20 -10 -11 -23 -20
-29 -20 -6 0 -26 -16 -45 -35 -19 -19 -38 -32 -42 -30 -4 3 -10 -7 -13 -20 -4
-14 -10 -24 -15 -21 -8 5 -52 -48 -50 -60 0 -4 -4 -10 -9 -13 -12 -8 -62 -103
-62 -118 0 -7 -4 -13 -10 -13 -5 0 -10 -7 -10 -15 0 -8 -9 -42 -21 -75 -11
-33 -18 -64 -15 -69 3 -5 0 -14 -7 -20 -8 -6 -13 -27 -12 -46 2 -31 -3 -40
-33 -60 l-34 -23 26 -27 c20 -20 26 -37 28 -80 2 -30 8 -57 15 -59 6 -3 10
-13 9 -23 -2 -10 1 -21 6 -24 4 -3 -3 -21 -17 -40 -13 -19 -29 -45 -35 -59 -6
-14 -16 -29 -23 -35 -7 -5 -34 -41 -60 -80 -82 -120 -117 -169 -148 -202 -16
-17 -29 -34 -29 -38 0 -7 -51 -74 -82 -109 -10 -11 -18 -23 -18 -27 0 -3 -13
-22 -30 -40 -16 -19 -30 -40 -30 -46 0 -7 -4 -13 -10 -13 -5 0 -10 -5 -10 -12
0 -6 -7 -18 -16 -27 -23 -24 -129 -172 -147 -206 -8 -17 -25 -40 -36 -52 -12
-12 -21 -25 -21 -29 0 -4 -11 -17 -25 -30 -14 -13 -25 -27 -26 -31 0 -4 -17
-31 -37 -60 -20 -28 -57 -80 -82 -115 -24 -35 -52 -72 -62 -82 -10 -11 -18
-24 -18 -29 0 -4 -6 -15 -12 -22 -28 -31 -39 -46 -84 -116 -26 -41 -51 -75
-55 -77 -5 -2 -9 -10 -9 -17 0 -8 -8 -19 -17 -24 -10 -6 -14 -11 -10 -11 5 0
-1 -13 -12 -29 -12 -16 -21 -32 -21 -36 0 -4 -13 -24 -30 -45 -16 -21 -30 -43
-30 -49 0 -6 -9 -20 -19 -30 -11 -11 -27 -33 -35 -50 -9 -16 -21 -35 -28 -43
-16 -17 -32 -42 -59 -93 -12 -22 -28 -44 -35 -48 -8 -4 -14 -12 -14 -17 0 -6
-8 -18 -17 -29 -10 -10 -27 -31 -38 -45 -33 -44 -126 -102 -172 -109 -25 -3
-43 -1 -43 5 0 5 -4 6 -10 3 -5 -3 -23 8 -40 25 -16 17 -30 28 -30 24 0 -3 -7
-1 -15 6 -8 7 -15 23 -15 36 0 15 -8 25 -22 30 -28 9 -57 44 -58 69 0 12 -9
38 -20 60 -11 22 -20 50 -20 63 0 12 -11 34 -25 48 -29 29 -27 24 -31 89 -5
76 -9 90 -27 118 -9 14 -14 33 -11 42 4 10 2 15 -7 13 -11 -2 -13 7 -11 38 2
26 -2 46 -11 55 -7 8 -13 27 -13 42 1 15 -2 27 -7 27 -4 0 -5 5 -2 10 3 6 2
10 -3 10 -5 0 -10 15 -10 33 0 17 -5 50 -10 72 -20 77 -22 91 -27 159 -3 39
-10 73 -17 77 -7 4 -12 33 -13 66 -1 32 -6 66 -11 76 -6 11 -8 37 -4 63 4 24
4 44 1 44 -4 0 -7 35 -9 78 -2 72 -9 157 -12 157 -1 0 -10 127 -13 205 -1 25
-5 50 -8 55 -3 6 -5 44 -4 85 1 41 -2 82 -6 91 -12 25 -17 88 -8 91 5 2 4 18
-3 35 -9 25 -9 36 -1 44 9 9 8 17 -2 33 -12 19 -19 59 -28 151 -2 17 -9 41
-17 55 -9 16 -9 25 -2 28 6 2 8 10 5 19 -3 8 0 19 7 23 7 4 13 19 13 33 0 16
11 36 28 52 16 14 29 30 29 36 0 7 10 28 22 48 12 19 24 44 25 54 2 10 10 29
19 42 8 13 15 25 14 27 -3 7 13 37 19 34 3 -2 6 6 7 17 1 26 13 88 19 97 2 4
7 31 10 60 4 30 9 58 11 62 4 7 6 197 2 288 0 14 4 54 9 90 8 50 8 71 -2 90
-7 14 -17 23 -21 21 -12 -5 -46 59 -40 75 3 8 2 14 -3 14 -8 0 -38 80 -33 93
1 4 -3 7 -10 7 -6 0 -9 3 -5 6 3 3 -3 15 -14 27 -10 11 -19 27 -19 34 0 7 -4
13 -10 13 -5 0 -9 3 -8 8 1 4 -3 17 -10 28 -6 12 -8 24 -5 28 3 3 -1 6 -10 6
-10 0 -17 4 -17 9 0 5 -16 26 -35 46 -20 20 -33 40 -30 45 4 6 -1 10 -9 10 -8
0 -23 14 -33 30 -9 17 -23 30 -30 30 -7 0 -13 4 -13 9 0 6 -22 22 -49 38 -27
15 -47 31 -45 35 3 4 -6 8 -20 8 -14 0 -27 4 -30 9 -3 4 -20 12 -38 16 -18 4
-40 9 -48 11 -31 8 -126 10 -155 3z"/>
<path d="M7236 16621 c-4 -7 -5 -15 -2 -18 9 -9 19 4 14 18 -4 11 -6 11 -12 0z"/>
<path d="M23405 11559 c-4 -6 -5 -12 -2 -15 2 -3 7 2 10 11 7 17 1 20 -8 4z"/>
<path d="M9030 8531 c0 -10 26 -9 36 2 4 4 -2 7 -14 7 -12 0 -22 -4 -22 -9z"/>
<path d="M23080 8206 c0 -2 9 -6 20 -9 11 -3 18 -1 14 4 -5 9 -34 13 -34 5z"/>
<path d="M23970 7899 c0 -5 5 -7 10 -4 6 3 10 8 10 11 0 2 -4 4 -10 4 -5 0
-10 -5 -10 -11z"/>
<path d="M8778 7632 c-19 -4 -24 -17 -9 -26 12 -8 45 6 48 20 2 11 -9 13 -39
6z"/>
<path d="M8645 7140 c3 -5 10 -10 16 -10 5 0 9 5 9 10 0 6 -7 10 -16 10 -8 0
-12 -4 -9 -10z"/>
<path d="M15045 6980 c-3 -5 -4 -10 -1 -10 2 0 11 -3 20 -6 11 -4 16 -1 16 10
0 18 -25 22 -35 6z"/>
<path d="M8545 6090 c-3 -5 -1 -10 4 -10 6 0 11 5 11 10 0 6 -2 10 -4 10 -3 0
-8 -4 -11 -10z"/>
<path d="M8731 4884 c0 -11 3 -14 6 -6 3 7 2 16 -1 19 -3 4 -6 -2 -5 -13z"/>
<path d="M13830 4749 c0 -5 5 -7 10 -4 6 3 10 8 10 11 0 2 -4 4 -10 4 -5 0
-10 -5 -10 -11z"/>
<path d="M22838 4533 c7 -3 16 -2 19 1 4 3 -2 6 -13 5 -11 0 -14 -3 -6 -6z"/>
<path d="M18992 3728 c-28 -28 1 -64 43 -54 31 8 32 23 3 47 -25 22 -30 23
-46 7z"/>
<path d="M16150 3022 c0 -16 28 -34 47 -30 31 6 21 33 -14 36 -18 2 -33 -1
-33 -6z"/>
<path d="M16990 1466 c0 -9 5 -16 10 -16 6 0 10 4 10 9 0 6 -4 13 -10 16 -5 3
-10 -1 -10 -9z"/>
</g>
</svg>
